Coordinates
version=1
nRows=11
nColumns=26
inDegrees=yes

Units are S.I. units (second, meters, Newtons, ...)
If the header above contains a line with 'inDegrees', this indicates whether rotational values are in degrees (yes) or radians (no).

endheader
time	pelvis_tilt	pelvis_list	pelvis_rotation	pelvis_tx	pelvis_ty	pelvis_tz	hip_flexion_l	hip_adduction_l	hip_rotation_l	hip_flexion_r	hip_adduction_r	hip_rotation_r	knee_angle_l_beta	knee_angle_r_beta	knee_angle_l	knee_angle_r	ankle_angle_l	ankle_angle_r	subtalar_angle_l	subtalar_angle_r	mtp_angle_l	mtp_angle_r	lumbar_ext	lumbar_bend	lumbar_rota
      1.65000000	      3.26869465	     -5.21818021	      1.70106616	      0.76843768	      0.83616535	     -0.21031689	      4.11130591	     -8.10425095	     -3.11524420	     22.52193674	      8.97276792	     -9.54945715	      1.16510975	      0.52611305	    -66.75587117	    -30.14405726	    -22.09208250	     -7.48580794	      0.00000000	      0.00000000	      0.00000000	      0.00000000	    -13.75581334	      7.66722012	      2.57923795
      1.66000000	      3.31344386	     -5.54502454	      1.59890607	      0.77923629	      0.83799033	     -0.20868988	      6.22368235	     -8.60884982	     -2.64339872	     21.27220817	      9.61075988	     -9.38772128	      1.20520684	      0.51439711	    -69.05326545	    -29.47278322	    -21.62610979	     -6.94706597	      0.00000000	      0.00000000	      0.00000000	      0.00000000	    -13.82848411	      7.84926448	      2.98103835
      1.67000000	      3.38759565	     -5.79074835	      1.44906430	      0.78998063	      0.83993543	     -0.20722403	      8.26842621	     -8.87954631	     -2.10942234	     19.92120644	     10.14541294	     -9.18562758	      1.23931366	      0.50078851	    -71.00744204	    -28.69306785	    -20.92403359	     -6.42883100	      0.00000000	      0.00000000	      0.00000000	      0.00000000	    -13.93976702	      7.95805294	      3.38820337
      1.68000000	      3.47013750	     -5.95204213	      1.30173526	      0.80057080	      0.84194607	     -0.20567605	     10.27489423	     -8.96440490	     -1.49644389	     18.54024254	     10.60290505	     -8.88912594	      1.26671214	      0.48649051	    -72.57725928	    -27.87385282	    -20.11118826	     -6.02042203	      0.00000000	      0.00000000	      0.00000000	      0.00000000	    -14.07090751	      7.92653334	      3.82262986
      1.69000000	      3.55260949	     -6.03848623	      1.08014918	      0.81117069	      0.84399819	     -0.20427338	     12.18712276	     -8.83653316	     -0.87552787	     17.11634127	     10.95192653	     -8.55974851	      1.28752919	      0.47114187	    -73.76998860	    -26.99444081	    -19.22033703	     -5.63655560	      0.00000000	      0.00000000	      0.00000000	      0.00000000	    -14.19194976	      7.83443934	      4.31250380
      1.70000000	      3.79164507	     -5.85479370	      0.68952611	      0.82169359	      0.84613938	     -0.20286347	     13.78546510	     -8.52120774	     -0.71098826	     15.78307216	     10.86675758	     -8.64240673	      1.30018373	      0.46587883	    -74.49504017	    -26.69289081	    -18.98419475	     -5.48922088	      0.00000000	      0.00000000	      0.00000000	      0.00000000	    -14.53212490	      7.39752301	      4.98834698
      1.71000000	      3.79310623	     -6.22702415	      0.55672404	      0.83245314	      0.84800364	     -0.20165125	     15.70464430	     -8.52074038	      0.20309565	     14.09020164	     11.61171467	     -7.91166623	      1.31086919	      0.43786904	    -75.10727208	    -25.08804813	    -17.07162109	     -5.08525368	      0.00000000	      0.00000000	      0.00000000	      0.00000000	    -14.49582123	      7.68195624	      5.31389006
      1.72000000	      3.85824789	     -6.08561800	      0.20023154	      0.84302559	      0.84991632	     -0.20046702	     17.32459774	     -7.99298318	      0.64273765	     12.65210378	     11.65291544	     -7.45471512	      1.31128988	      0.42234575	    -75.13137606	    -24.19862914	    -16.23944553	     -4.78023839	      0.00000000	      0.00000000	      0.00000000	      0.00000000	    -14.58686393	      7.33656057	      5.81745390
      1.73000000	      4.23825577	     -6.20857367	     -0.13838024	      0.85396242	      0.85208880	     -0.19928354	     18.45844199	     -7.86159218	      1.00063888	     10.68651245	     11.98733269	     -6.99601749	      1.30629578	      0.40126748	    -74.84523524	    -22.99093292	    -14.86706172	     -4.61822250	      0.00000000	      0.00000000	      0.00000000	      0.00000000	    -14.99608104	      7.29986576	      6.42688055
      1.74000000	      4.63475983	     -6.14543941	     -0.51380914	      0.86485611	      0.85427393	     -0.19813762	     19.40862621	     -7.50813033	      1.25007220	      8.71091536	     12.08253813	     -6.48643979	      1.29330237	      0.38073434	    -74.10076731	    -21.81447102	    -13.93118697	     -4.47460935	      0.00000000	      0.00000000	      0.00000000	      0.00000000	    -15.42861326	      7.03206504	      6.98552859
      1.75000000	      4.60528036	     -6.00733324	     -0.92883282	      0.87547540	      0.85555642	     -0.19709256	     20.81548682	     -7.01171490	      1.53983806	      7.42616168	     12.03816915	     -6.03974033	      1.27681740	      0.36682187	    -73.15624805	    -21.01734474	    -12.96924556	     -4.14861235	      0.00000000	      0.00000000	      0.00000000	      0.00000000	    -15.37519662	      6.70951634	      7.48876493
